<svg id="Layer_1" data-name="Layer 1" xmlns="http://www.w3.org/2000/svg" xmlns:xlink="http://www.w3.org/1999/xlink" viewBox="0 0 128 128" width="128" height="128">
<g transform="scale(0.1185)">
<defs><style>.cls-1{fill:#fff;}.cls-2{fill:#89673b;}.cls-3{fill:url(#linear-gradient);}.cls-4{fill:url(#linear-gradient-2);}.cls-5{fill:url(#linear-gradient-3);}.cls-6{fill:url(#linear-gradient-4);}.cls-7{fill:url(#linear-gradient-5);}.cls-8{fill:url(#linear-gradient-6);}.cls-9{fill:url(#linear-gradient-7);}.cls-10{fill:url(#linear-gradient-8);}.cls-11{fill:url(#linear-gradient-9);}.cls-12{fill:url(#linear-gradient-16);}.cls-13{fill:url(#linear-gradient-17);}.cls-14{fill:url(#linear-gradient-18);}.cls-15{fill:url(#linear-gradient-19);}.cls-16{fill:url(#linear-gradient-20);}.cls-17{fill:url(#linear-gradient-21);}.cls-18{fill:url(#linear-gradient-22);}.cls-19{fill:url(#linear-gradient-23);}.cls-20{fill:url(#linear-gradient-24);}.cls-21{fill:url(#linear-gradient-25);}</style><linearGradient id="linear-gradient" x1="304.4" y1="689.69" x2="389.16" y2="689.69" gradientUnits="userSpaceOnUse"><stop offset="0" stop-color="#a1802a"/><stop offset="0.49" stop-color="#ecd692"/><stop offset="1" stop-color="#a3822c"/></linearGradient><linearGradient id="linear-gradient-2" x1="343.24" y1="529.65" x2="360.09" y2="529.65" xlink:href="#linear-gradient"/><linearGradient id="linear-gradient-3" x1="338.73" y1="440.13" x2="599.05" y2="440.13" xlink:href="#linear-gradient"/><linearGradient id="linear-gradient-4" x1="311.92" y1="399.29" x2="728.06" y2="399.29" xlink:href="#linear-gradient"/><linearGradient id="linear-gradient-5" x1="240.21" y1="440.67" x2="322.8" y2="440.67" xlink:href="#linear-gradient"/><linearGradient id="linear-gradient-6" x1="235.68" y1="665.86" x2="728.66" y2="665.86" xlink:href="#linear-gradient"/><linearGradient id="linear-gradient-7" x1="392.32" y1="644.06" x2="488.27" y2="644.06" xlink:href="#linear-gradient"/><linearGradient id="linear-gradient-8" x1="439.56" y1="466.7" x2="443.75" y2="600.32" xlink:href="#linear-gradient"/><linearGradient id="linear-gradient-9" x1="478.51" y1="353.83" x2="487.63" y2="846.73" gradientUnits="userSpaceOnUse"><stop offset="0.04" stop-color="#ecd692"/><stop offset="0.39" stop-color="#a1802a"/><stop offset="0.7" stop-color="#ecd692"/><stop offset="1" stop-color="#a3822c"/></linearGradient><linearGradient id="linear-gradient-16" x1="387.94" y1="489.95" x2="490.14" y2="489.95" gradientUnits="userSpaceOnUse"><stop offset="0" stop-color="#a1802a"/><stop offset="0.52" stop-color="#ecd692"/><stop offset="1" stop-color="#a3822c"/></linearGradient><linearGradient id="linear-gradient-17" x1="392.32" y1="644.06" x2="486.17" y2="644.06" xlink:href="#linear-gradient-16"/><linearGradient id="linear-gradient-18" x1="355.64" y1="659.74" x2="712.43" y2="659.74" xlink:href="#linear-gradient-16"/><linearGradient id="linear-gradient-19" x1="352.85" y1="531.52" x2="360.09" y2="531.52" xlink:href="#linear-gradient-16"/><linearGradient id="linear-gradient-20" x1="372.87" y1="423.78" x2="593.52" y2="423.78" xlink:href="#linear-gradient-16"/><linearGradient id="linear-gradient-21" x1="639.27" y1="463.99" x2="711.09" y2="463.99" xlink:href="#linear-gradient-16"/><linearGradient id="linear-gradient-22" x1="343.24" y1="386.99" x2="698.36" y2="386.99" xlink:href="#linear-gradient-16"/><linearGradient id="linear-gradient-23" x1="247.96" y1="444.47" x2="322.8" y2="444.47" xlink:href="#linear-gradient-16"/><linearGradient id="linear-gradient-24" x1="243.26" y1="665.23" x2="674.03" y2="665.23" xlink:href="#linear-gradient-16"/><linearGradient id="linear-gradient-25" x1="368.12" y1="281.11" x2="370.08" y2="387.51" gradientUnits="userSpaceOnUse"><stop offset="0" stop-color="#a1802a"/><stop offset="0.43" stop-color="#c1a556"/><stop offset="1" stop-color="#ecd692"/></linearGradient></defs><rect class="cls-1" x="491.74" y="493.27" width="26.25" height="30.49" transform="translate(-210.67 547.12) rotate(-48.29)"/><path class="cls-1" d="M864.38,376.45,863,375l-93.6,43.94-15.68,26.95-9.69,15.36c6.6,3.94,14.61,14,21.33,22.88-.22-5.63-2.37-8.87-.82-9.86,17.36,9.86,51.53,37.21,51.53,45.73,0,13.79-19.66,16.31-49.88,16.31v0H678.37c-1.64-31.49-14.39-65.42-37.79-65.42-22.3,0-39.4,29.71-39.4,56.89,0,26.05,15.07,37.42,33.34,37.42h37c-11.36,26.64-49.35,47.35-86.76,47.35a123.55,123.55,0,0,1-24.23-2.38v3.31c10.49,6.41,38.46,19.14,52.55,19.14,32.62,0,58-30.44,64.36-67.42h98.82s55.2,1.57,55.2-45.64c0-16.69-7-31.15-27.45-54.46L781.2,442.18l77.22-34.79ZM635.56,536.32c-15.25,0-28.41-2.31-28.41-11.7,0-10.18,10.44-26.65,25.7-26.65,18.15,0,30.67,20.29,36.65,38.35Z"/><path class="cls-2" d="M346.78,724.81a35.12,35.12,0,1,1,35.12-35.12A35.16,35.16,0,0,1,346.78,724.81Zm0-61a25.93,25.93,0,1,0,25.93,25.93A26,26,0,0,0,346.78,663.76Z"/><path class="cls-3" d="M346.78,732.07a42.39,42.39,0,1,1,42.38-42.38A42.43,42.43,0,0,1,346.78,732.07Zm0-73.67a31.29,31.29,0,1,0,31.29,31.29A31.33,31.33,0,0,0,346.78,658.4Z"/><polygon class="cls-1" points="346.94 722.88 352.63 693.65 381.79 687.71 352.69 682.04 346.94 652.85 340.94 681.96 311.76 687.71 341 693.73 346.94 722.88"/><path class="cls-4" d="M343.24,539.57c4.6.95,9.24,1.85,13.95,2.7a170.21,170.21,0,0,1,2.9-20.79A30.85,30.85,0,0,1,346.6,517,190.67,190.67,0,0,0,343.24,539.57Z"/><path class="cls-5" d="M591.84,389.9a31,31,0,0,1,7.21-12.41,190.52,190.52,0,0,0-230.24,82.32c-1.3,2.15-2.54,4.36-3.72,6.58h0a20.8,20.8,0,0,0-2.25-.11,24.13,24.13,0,0,0-1.19,48.23c.39,0,.79,0,1.19,0a24.14,24.14,0,0,0,15.38-42.75h0c1.14-2.08,2.33-4.13,3.54-6.16v0A176.43,176.43,0,0,1,591.84,389.9Zm-229,110.52h-.5a9.82,9.82,0,0,1-5.51-2,10,10,0,0,1,6-18c.31,0,.61,0,.9,0a10,10,0,0,1-.9,20Z"/><path class="cls-6" d="M321.15,364.1c.31.5.63,1,1,1.48q.9,1.4,1.92,2.76a61,61,0,0,0,98.59-1.28,61,61,0,0,1-75.76-5.35q4-2.9,8.17-5.64a232,232,0,0,1,128-38.35c97.06,0,180.45,59.59,215.53,144.11a191.7,191.7,0,0,0-46.86-54.59c-2-1.62-4.09-3.21-6.19-4.73a23.18,23.18,0,0,0,.27-3.55,24.13,24.13,0,0,0-47.35-6.58,23.88,23.88,0,0,0-.92,6.58,24.11,24.11,0,0,0,41.74,16.47c1.88,1.43,3.76,2.89,5.57,4.39a176.62,176.62,0,0,1,60.28,97.09h22.94C711.41,396.57,607.9,303.6,483.05,303.6a245.88,245.88,0,0,0-137.53,41.85c-2.66,1.78-5.3,3.63-7.89,5.52a62.59,62.59,0,0,1-4.61-8.08,60.94,60.94,0,0,1,5.34-61.22c-.66.45-1.3.91-2,1.38a60.78,60.78,0,0,0-15.25,81.05ZM621.66,409a10,10,0,0,1-10-10,9.86,9.86,0,0,1,.37-2.68,10,10,0,0,1,19.55,4.12,9.78,9.78,0,0,1-2.56,5.33A9.89,9.89,0,0,1,621.66,409Z"/><path class="cls-7" d="M322.8,381.63a70.91,70.91,0,0,1-6.49-7.52c-.88-1.17-1.6-2.23-2.26-3.23l-.16-.24a247.1,247.1,0,0,0-73.68,133.11c4,2.37,8.42,4.69,13.06,6.95A233.09,233.09,0,0,1,322.8,381.63Z"/><path class="cls-8" d="M707.92,580.12a171.06,171.06,0,0,1-5.2,25,175.91,175.91,0,0,1-38.93,69.64.73.73,0,0,1-.09.13,176,176,0,0,1-130.59,57.89c-84.65,0-155.58-59.93-172.58-139.59-5.11-.7-10.08-1.49-14.88-2.34,16.29,88.65,94.15,156.05,187.46,156.05A190.18,190.18,0,0,0,674,684.55a.44.44,0,0,0,.12-.11,1.23,1.23,0,0,1,.2-.19c-42.19,60.39-112.21,100-191.3,100C354.44,784.21,249.8,679.57,249.8,551c0-2.66,0-5.31.13-7.93-4.52-3.1-9.11-6.31-13.63-9.65q-.62,8.7-.62,17.58c0,136.4,111,247.36,247.37,247.36,126.52,0,231.14-95.51,245.61-218.21Z"/><path class="cls-9" d="M481.92,653.19a94,94,0,0,1-65.58-55.25l-24-1.33a116,116,0,0,0,86,78.42l5.7,16.48h4.29l-1.8-37.74Z"/><path class="cls-10" d="M487.59,431.79l-7.24,16.29h0A116,116,0,0,0,387.94,547c7.29.9,14.65,1.68,22,2.3a93.84,93.84,0,0,1,74-79.36l3.18-.37,5.45-37.74Z"/><path class="cls-11" d="M343.24,539.57c4.6.95,9.24,1.85,13.95,2.7a170.21,170.21,0,0,1,2.9-20.79A30.85,30.85,0,0,1,346.6,517,190.67,190.67,0,0,0,343.24,539.57Z"/><path class="cls-11" d="M591.84,389.9a31,31,0,0,1,7.21-12.41,190.52,190.52,0,0,0-230.24,82.32c-1.3,2.15-2.54,4.36-3.72,6.58h0a20.8,20.8,0,0,0-2.25-.11,24.13,24.13,0,0,0-1.19,48.23c.39,0,.79,0,1.19,0a24.14,24.14,0,0,0,15.38-42.75h0c1.14-2.08,2.33-4.13,3.54-6.16v0A176.43,176.43,0,0,1,591.84,389.9Zm-229,110.52h-.5a9.82,9.82,0,0,1-5.51-2,10,10,0,0,1,6-18c.31,0,.61,0,.9,0a10,10,0,0,1-.9,20Z"/><path class="cls-11" d="M321.15,364.1c.31.5.63,1,1,1.48q.9,1.4,1.92,2.76a61,61,0,0,0,98.59-1.28,61,61,0,0,1-75.76-5.35q4-2.9,8.17-5.64a232,232,0,0,1,128-38.35c97.06,0,180.45,59.59,215.53,144.11a191.7,191.7,0,0,0-46.86-54.59c-2-1.62-4.09-3.21-6.19-4.73a23.18,23.18,0,0,0,.27-3.55,24.13,24.13,0,0,0-47.35-6.58,23.88,23.88,0,0,0-.92,6.58,24.11,24.11,0,0,0,41.74,16.47c1.88,1.43,3.76,2.89,5.57,4.39a176.62,176.62,0,0,1,60.28,97.09h22.94C711.41,396.57,607.9,303.6,483.05,303.6a245.88,245.88,0,0,0-137.53,41.85c-2.66,1.78-5.3,3.63-7.89,5.52a62.59,62.59,0,0,1-4.61-8.08,60.94,60.94,0,0,1,5.34-61.22c-.66.45-1.3.91-2,1.38a60.78,60.78,0,0,0-15.25,81.05ZM621.66,409a10,10,0,0,1-10-10,9.86,9.86,0,0,1,.37-2.68,10,10,0,0,1,19.55,4.12,9.78,9.78,0,0,1-2.56,5.33A9.89,9.89,0,0,1,621.66,409Z"/><path class="cls-11" d="M322.8,381.63a70.91,70.91,0,0,1-6.49-7.52c-.88-1.17-1.6-2.23-2.26-3.23l-.16-.24a247.1,247.1,0,0,0-73.68,133.11c4,2.37,8.42,4.69,13.06,6.95A233.09,233.09,0,0,1,322.8,381.63Z"/><path class="cls-11" d="M707.92,580.12a171.06,171.06,0,0,1-5.2,25,175.91,175.91,0,0,1-38.93,69.64.73.73,0,0,1-.09.13,176,176,0,0,1-130.59,57.89c-84.65,0-155.58-59.93-172.58-139.59-5.11-.7-10.08-1.49-14.88-2.34,16.29,88.65,94.15,156.05,187.46,156.05A190.18,190.18,0,0,0,674,684.55a.44.44,0,0,0,.12-.11,1.23,1.23,0,0,1,.2-.19c-42.19,60.39-112.21,100-191.3,100C354.44,784.21,249.8,679.57,249.8,551c0-2.66,0-5.31.13-7.93-4.52-3.1-9.11-6.31-13.63-9.65q-.62,8.7-.62,17.58c0,136.4,111,247.36,247.37,247.36,126.52,0,231.14-95.51,245.61-218.21Z"/><path class="cls-11" d="M481.92,653.19a94,94,0,0,1-65.58-55.25l-24-1.33a116,116,0,0,0,86,78.42l5.7,16.48h4.29l-1.8-37.74Z"/><path class="cls-11" d="M487.59,431.79l-7.24,16.29h0A116,116,0,0,0,387.94,547c7.29.9,14.65,1.68,22,2.3a93.84,93.84,0,0,1,74-79.36l3.18-.37,5.45-37.74Z"/><path class="cls-12" d="M490.14,431.78l-7,26.23S414.1,468.29,398,548.12L387.94,547s8.36-80.44,92.41-98.88l7.24-16.29Z"/><path class="cls-13" d="M486.17,691.51l-4-25.65s-60.42-10.77-77.81-68.58l-12-.67s16.08,62.16,86,78.42l5.7,16.48Z"/><path class="cls-14" d="M355.64,592.53l4.89.7S383.19,722.59,527,732.71c0,0,148.27,10.93,180.93-152.59h4.51S698.82,735.42,527.8,739.35C527.8,739.35,383.41,736,355.64,592.53Z"/><path class="cls-15" d="M355.64,520.76a162.71,162.71,0,0,0-2.79,20.71l4.34.8s1.34-14.28,2.9-20.79A26.11,26.11,0,0,1,355.64,520.76Z"/><path class="cls-16" d="M591.84,389.9s-132.57-51.07-213.62,81.89l-5.35-3.42S440.48,340,593.52,385.56Z"/><path class="cls-17" d="M705.12,516.91h6s-11.25-62.07-68.82-105.85l-3,4.36S692.48,455.25,705.12,516.91Z"/><path class="cls-18" d="M346.86,361.71l-3.62-3.58s81-71.13,208.84-35.43c0,0,117.64,35.43,146.28,138.61h0S658.54,358.05,551.8,328.06C551.8,328.06,447.06,290.12,346.86,361.71Z"/><path class="cls-19" d="M253.27,510.7,248,508s7.87-67.54,71.69-129.78l3.15,3.39S267.3,428.5,253.27,510.7Z"/><path class="cls-20" d="M249.93,543S238.19,720.72,424,776.63c0,0,144.59,47.53,250.07-92.08,0,0-69.11,140.67-251.55,99.88,0,0-187.41-44.92-178.94-245.83"/><path class="cls-21" d="M338.36,281.67A85.66,85.66,0,0,0,326,301.91a61.89,61.89,0,0,0-5.34,22.52,56.39,56.39,0,0,0,.86,11.4,54.43,54.43,0,0,0,3.41,10.87,64.86,64.86,0,0,0,5.54,10c1,1.58,2.3,3.15,3.4,4.63a51.37,51.37,0,0,0,3.89,4.1c11,10.65,25.8,17.64,41.22,17.44,1.92,0,3.83-.16,5.76-.31,1-.1,1.91-.29,2.86-.42a27.64,27.64,0,0,0,2.86-.52l2.85-.62,2.81-.81c1.9-.49,3.7-1.26,5.56-1.91a106.62,106.62,0,0,0,20.94-11.24,85.23,85.23,0,0,1-19.83,13.77,61.67,61.67,0,0,1-23.67,6.44,55.6,55.6,0,0,1-24.49-4.13,68.06,68.06,0,0,1-20.77-13.65,54.63,54.63,0,0,1-4.3-4.64c-1.28-1.74-2.5-3.32-3.65-5.07s-2.26-3.5-3.2-5.37a55.23,55.23,0,0,1-2.68-5.66,59.39,59.39,0,0,1-3.35-12.09,52.33,52.33,0,0,1-.38-12.5,60.23,60.23,0,0,1,7.23-23.45A72.07,72.07,0,0,1,338.36,281.67Z"/><path class="cls-1" d="M362.75,514.83a24.44,24.44,0,1,1,24.44-24.44A24.46,24.46,0,0,1,362.75,514.83Zm0-34.4a10,10,0,1,0,10,10A10,10,0,0,0,362.75,480.43Z"/><path class="cls-1" d="M621.67,423.2A24.24,24.24,0,1,1,645.9,399,24.26,24.26,0,0,1,621.67,423.2Zm0-34.12a9.89,9.89,0,1,0,9.88,9.88A9.9,9.9,0,0,0,621.67,389.08Z"/><path class="cls-1" d="M818.78,348.91l-2.42,13.57-96.28,45.1,6.1-14.7Z"/><path class="cls-1" d="M551.7,468.2h-6.28l-7.77,20.37c18.09,13.39,24.46,29.87,24.89,50.73-29.43,19.55-89.89,25-153.38,19.55-7.33-.62-14.7-1.39-22.06-2.31-10.18-1.25-20.37-2.76-30.43-4.53-4.71-.84-9.4-1.72-14-2.67-33.8-6.83-65.6-16.5-90.89-28.5-4.67-2.2-9.1-4.5-13.3-6.86a134.25,134.25,0,0,1-22.82-15.83v4.55a173.33,173.33,0,0,0,21.73,19.39c4.29,3.31,8.72,6.53,13.24,9.68s9,6.18,13.46,9.22c31.11,20.77,66.18,37.26,80,39.79q7.14,1.34,14.6,2.41c10,1.47,20.42,2.64,31,3.51,7.68.62,15.44,1.1,23.2,1.44,55.7,2.41,111.55-2.76,135-13.93,10.24-6,23.27-33.3,23.27-33.3C577.33,520.76,573.82,487.56,551.7,468.2Z"/>
</g>
</svg>