<svg width="1920" height="120" viewBox="0 0 1920 120" fill="none" xmlns="http://www.w3.org/2000/svg" preserveAspectRatio="none">
  <defs>
    <linearGradient id="fadeBottom" x1="0%" y1="100%" x2="0%" y2="0%">
      <stop offset="0%" style="stop-color:#0a0a0a;stop-opacity:1" />
      <stop offset="70%" style="stop-color:#0a0a0a;stop-opacity:0.8" />
      <stop offset="100%" style="stop-color:#0a0a0a;stop-opacity:0" />
    </linearGradient>
  </defs>

  <!-- Simple elegant torn edge (bottom) -->
  <path d="M 0,120 L 1920,120 L 1920,25
           C 1880,27 1840,24 1800,26
           C 1760,28 1720,25 1680,27
           C 1640,29 1600,26 1560,28
           C 1520,30 1480,27 1440,29
           C 1400,31 1360,28 1320,30
           C 1280,32 1240,29 1200,31
           C 1160,33 1120,30 1080,32
           C 1040,34 1000,31 960,33
           C 920,35 880,32 840,34
           C 800,36 760,33 720,35
           C 680,37 640,34 600,36
           C 560,38 520,35 480,37
           C 440,39 400,36 360,38
           C 320,40 280,37 240,39
           C 200,41 160,38 120,40
           C 80,42 40,39 0,41 Z"
           fill="url(#fadeBottom)"/>
</svg>
