<svg width="1920" height="120" viewBox="0 0 1920 120" fill="none" xmlns="http://www.w3.org/2000/svg" preserveAspectRatio="none">
  <defs>
    <linearGradient id="fadeTop" x1="0%" y1="0%" x2="0%" y2="100%">
      <stop offset="0%" style="stop-color:#0a0a0a;stop-opacity:1" />
      <stop offset="70%" style="stop-color:#0a0a0a;stop-opacity:0.8" />
      <stop offset="100%" style="stop-color:#0a0a0a;stop-opacity:0" />
    </linearGradient>
  </defs>

  <!-- Simple elegant torn edge -->
  <path d="M 0,0 L 1920,0 L 1920,95
           C 1880,93 1840,96 1800,94
           C 1760,92 1720,95 1680,93
           C 1640,91 1600,94 1560,92
           C 1520,90 1480,93 1440,91
           C 1400,89 1360,92 1320,90
           C 1280,88 1240,91 1200,89
           C 1160,87 1120,90 1080,88
           C 1040,86 1000,89 960,87
           C 920,85 880,88 840,86
           C 800,84 760,87 720,85
           C 680,83 640,86 600,84
           C 560,82 520,85 480,83
           C 440,81 400,84 360,82
           C 320,80 280,83 240,81
           C 200,79 160,82 120,80
           C 80,78 40,81 0,79 Z"
           fill="url(#fadeTop)"/>
</svg>
